<svg width="17" height="16" viewBox="0 0 17 16" fill="none" xmlns="http://www.w3.org/2000/svg">
<path d="M12.8675 2.66675H3.53418C3.00375 2.66675 2.49504 2.87746 2.11997 3.25253C1.74489 3.62761 1.53418 4.13631 1.53418 4.66675V11.3334C1.53418 11.8638 1.74489 12.3726 2.11997 12.7476C2.49504 13.1227 3.00375 13.3334 3.53418 13.3334H12.8675C13.3979 13.3334 13.9067 13.1227 14.2817 12.7476C14.6568 12.3726 14.8675 11.8638 14.8675 11.3334V4.66675C14.8675 4.13631 14.6568 3.62761 14.2817 3.25253C13.9067 2.87746 13.3979 2.66675 12.8675 2.66675ZM3.53418 4.00008H12.8675C13.0443 4.00008 13.2139 4.07032 13.3389 4.19534C13.4639 4.32037 13.5342 4.48994 13.5342 4.66675L8.20085 7.92008L2.86751 4.66675C2.86751 4.48994 2.93775 4.32037 3.06278 4.19534C3.1878 4.07032 3.35737 4.00008 3.53418 4.00008ZM13.5342 11.3334C13.5342 11.5102 13.4639 11.6798 13.3389 11.8048C13.2139 11.9298 13.0443 12.0001 12.8675 12.0001H3.53418C3.35737 12.0001 3.1878 11.9298 3.06278 11.8048C2.93775 11.6798 2.86751 11.5102 2.86751 11.3334V6.18675L7.85418 9.23341C7.95553 9.29193 8.07049 9.32273 8.18751 9.32273C8.30454 9.32273 8.4195 9.29193 8.52085 9.23341L13.5342 6.18675V11.3334Z" fill="white"/>
</svg>
