<svg width="17" height="17" viewBox="0 0 17 17" fill="none" xmlns="http://www.w3.org/2000/svg">
<path d="M13.641 3.57329C12.9332 2.8653 11.9948 2.43484 10.9965 2.36021C9.99818 2.28558 9.00622 2.57173 8.20103 3.16662C7.3528 2.53572 6.29702 2.24963 5.24631 2.36598C4.1956 2.48233 3.22799 2.99248 2.53835 3.79368C1.8487 4.59489 1.48824 5.62764 1.52956 6.68397C1.57088 7.7403 2.01091 8.74174 2.76103 9.48662L7.7277 14.4533C7.78967 14.5158 7.86341 14.5654 7.94465 14.5992C8.02589 14.6331 8.11302 14.6505 8.20103 14.6505C8.28904 14.6505 8.37618 14.6331 8.45741 14.5992C8.53865 14.5654 8.61239 14.5158 8.67436 14.4533L13.641 9.48662C14.0295 9.09844 14.3376 8.63752 14.5478 8.1302C14.7581 7.62288 14.8663 7.07911 14.8663 6.52996C14.8663 5.9808 14.7581 5.43703 14.5478 4.92971C14.3376 4.4224 14.0295 3.96148 13.641 3.57329ZM12.701 8.54662L8.20103 13.04L3.70103 8.54662C3.30448 8.14842 3.03435 7.64199 2.92452 7.09085C2.81469 6.53971 2.87005 5.96841 3.08366 5.44862C3.29728 4.92883 3.65963 4.48369 4.12526 4.16904C4.59089 3.85439 5.13907 3.68425 5.70103 3.67996C6.45177 3.6818 7.1711 3.98151 7.70103 4.51329C7.76301 4.57578 7.83674 4.62537 7.91798 4.65922C7.99922 4.69306 8.08636 4.71049 8.17436 4.71049C8.26237 4.71049 8.34951 4.69306 8.43075 4.65922C8.51199 4.62537 8.58572 4.57578 8.6477 4.51329C9.19325 4.04055 9.89803 3.79272 10.6194 3.81997C11.3408 3.84723 12.0248 4.14752 12.5332 4.66008C13.0415 5.17264 13.3361 5.85918 13.3574 6.58075C13.3786 7.30232 13.125 8.00502 12.6477 8.54662H12.701Z" fill="white"/>
</svg>
