<svg width="17" height="17" viewBox="0 0 17 17" fill="none" xmlns="http://www.w3.org/2000/svg">
<path d="M11.245 15.1659H11.2637C11.6157 15.1659 11.9483 15.0273 12.2003 14.7753L14.0083 12.9673C14.0703 12.9054 14.1194 12.8319 14.153 12.751C14.1865 12.6702 14.2038 12.5835 14.2038 12.4959C14.2038 12.4084 14.1865 12.3217 14.153 12.2408C14.1194 12.1599 14.0703 12.0864 14.0083 12.0246L11.3417 9.35792C11.2798 9.29595 11.2063 9.2468 11.1255 9.21326C11.0446 9.17972 10.9579 9.16245 10.8703 9.16245C10.7828 9.16245 10.6961 9.17972 10.6152 9.21326C10.5343 9.2468 10.4608 9.29595 10.399 9.35792L9.33632 10.4206C8.84366 10.2739 7.92432 9.94059 7.34166 9.35792C6.75899 8.77525 6.42566 7.85592 6.27899 7.36325L7.34166 6.30059C7.40362 6.23873 7.45278 6.16526 7.48632 6.08438C7.51986 6.0035 7.53712 5.91681 7.53712 5.82925C7.53712 5.7417 7.51986 5.655 7.48632 5.57412C7.45278 5.49325 7.40362 5.41978 7.34166 5.35792L4.67499 2.69125C4.54754 2.57095 4.37892 2.50394 4.20366 2.50394C4.0284 2.50394 3.85977 2.57095 3.73232 2.69125L1.92499 4.49925C1.67166 4.75259 1.52899 5.10059 1.53432 5.45592C1.54966 6.40525 1.80099 9.70259 4.39966 12.3013C6.99832 14.8999 10.2957 15.1506 11.245 15.1659ZM4.20432 4.10525L5.92832 5.82925L5.06632 6.69125C4.98788 6.76948 4.93026 6.86609 4.8987 6.97229C4.86714 7.07848 4.86266 7.19088 4.88566 7.29925C4.90166 7.37592 5.29299 9.19392 6.39966 10.3006C7.50632 11.4073 9.32432 11.7986 9.40099 11.8146C9.50936 11.8377 9.62179 11.8333 9.72801 11.8017C9.83423 11.7702 9.93083 11.7125 10.009 11.6339L10.871 10.7719L12.595 12.4959L11.2577 13.8326C10.4257 13.8186 7.57899 13.5953 5.34232 11.3579C3.09832 9.11392 2.88099 6.25725 2.86766 5.44192L4.20432 4.10525ZM13.5337 7.83259H14.867C14.867 4.41259 12.285 1.83325 8.86032 1.83325V3.16659C11.5683 3.16659 13.5337 5.12858 13.5337 7.83259Z" fill="white"/>
<path d="M8.86719 5.83333C10.2692 5.83333 10.8672 6.43133 10.8672 7.83333H12.2005C12.2005 5.68333 11.0172 4.5 8.86719 4.5V5.83333Z" fill="white"/>
</svg>
