<svg width="25" height="24" viewBox="0 0 25 24" fill="none" xmlns="http://www.w3.org/2000/svg">
<path d="M2.70117 4.25C2.70117 4.05109 2.78019 3.86032 2.92084 3.71967C3.06149 3.57902 3.25226 3.5 3.45117 3.5H4.00917C4.95917 3.5 5.52917 4.139 5.85417 4.733C6.07117 5.129 6.22817 5.588 6.35117 6.004C6.38444 6.00137 6.4178 6.00004 6.45117 6H18.9492C19.7792 6 20.3792 6.794 20.1512 7.593L18.3232 14.002C18.1593 14.5769 17.8125 15.0827 17.3355 15.4428C16.8584 15.803 16.2769 15.9979 15.6792 15.998H9.73117C9.12867 15.998 8.54282 15.8002 8.0637 15.4349C7.58457 15.0696 7.23867 14.557 7.07917 13.976L6.31917 11.204L5.05917 6.956L5.05817 6.948C4.90217 6.381 4.75617 5.85 4.53817 5.454C4.32917 5.069 4.16117 5 4.01017 5H3.45117C3.25226 5 3.06149 4.92098 2.92084 4.78033C2.78019 4.63968 2.70117 4.44891 2.70117 4.25ZM7.77417 10.84L8.52517 13.579C8.67517 14.121 9.16817 14.498 9.73117 14.498H15.6792C15.9509 14.498 16.2152 14.4095 16.4321 14.2458C16.649 14.0821 16.8066 13.8523 16.8812 13.591L18.6182 7.5H6.78617L7.76017 10.787L7.77417 10.84Z" fill="white"/>
<path d="M11.2012 19C11.2012 19.5304 10.9905 20.0391 10.6154 20.4142C10.2403 20.7893 9.7316 21 9.20117 21C8.67074 21 8.16203 20.7893 7.78696 20.4142C7.41189 20.0391 7.20117 19.5304 7.20117 19C7.20117 18.4696 7.41189 17.9609 7.78696 17.5858C8.16203 17.2107 8.67074 17 9.20117 17C9.7316 17 10.2403 17.2107 10.6154 17.5858C10.9905 17.9609 11.2012 18.4696 11.2012 19ZM9.70117 19C9.70117 18.8674 9.64849 18.7402 9.55473 18.6464C9.46096 18.5527 9.33378 18.5 9.20117 18.5C9.06856 18.5 8.94139 18.5527 8.84762 18.6464C8.75385 18.7402 8.70117 18.8674 8.70117 19C8.70117 19.1326 8.75385 19.2598 8.84762 19.3536C8.94139 19.4473 9.06856 19.5 9.20117 19.5C9.33378 19.5 9.46096 19.4473 9.55473 19.3536C9.64849 19.2598 9.70117 19.1326 9.70117 19Z" fill="white"/>
<path d="M18.2012 19C18.2012 19.5304 17.9905 20.0391 17.6154 20.4142C17.2403 20.7893 16.7316 21 16.2012 21C15.6707 21 15.162 20.7893 14.787 20.4142C14.4119 20.0391 14.2012 19.5304 14.2012 19C14.2012 18.4696 14.4119 17.9609 14.787 17.5858C15.162 17.2107 15.6707 17 16.2012 17C16.7316 17 17.2403 17.2107 17.6154 17.5858C17.9905 17.9609 18.2012 18.4696 18.2012 19ZM16.7012 19C16.7012 18.8674 16.6485 18.7402 16.5547 18.6464C16.461 18.5527 16.3338 18.5 16.2012 18.5C16.0686 18.5 15.9414 18.5527 15.8476 18.6464C15.7538 18.7402 15.7012 18.8674 15.7012 19C15.7012 19.1326 15.7538 19.2598 15.8476 19.3536C15.9414 19.4473 16.0686 19.5 16.2012 19.5C16.3338 19.5 16.461 19.4473 16.5547 19.3536C16.6485 19.2598 16.7012 19.1326 16.7012 19Z" fill="white"/>
</svg>
