<svg width="21" height="21" viewBox="0 0 21 21" fill="none" xmlns="http://www.w3.org/2000/svg">
<path d="M20.7094 18.7899L16.9994 15.1099C18.4395 13.3143 19.1369 11.0352 18.9482 8.7412C18.7595 6.44721 17.6991 4.31269 15.9849 2.77655C14.2708 1.24041 12.0332 0.419414 9.73234 0.482375C7.43145 0.545335 5.24214 1.48747 3.61456 3.11505C1.98698 4.74263 1.04485 6.93194 0.981887 9.23283C0.918926 11.5337 1.73992 13.7713 3.27606 15.4854C4.8122 17.1996 6.94672 18.26 9.24072 18.4487C11.5347 18.6374 13.8138 17.94 15.6094 16.4999L19.2894 20.1799C19.3824 20.2736 19.493 20.348 19.6148 20.3988C19.7367 20.4496 19.8674 20.4757 19.9994 20.4757C20.1314 20.4757 20.2621 20.4496 20.384 20.3988C20.5059 20.348 20.6165 20.2736 20.7094 20.1799C20.8897 19.9934 20.9904 19.7442 20.9904 19.4849C20.9904 19.2256 20.8897 18.9764 20.7094 18.7899V18.7899ZM9.99942 16.4999C8.61495 16.4999 7.26157 16.0894 6.11042 15.3202C4.95928 14.551 4.06207 13.4578 3.53226 12.1787C3.00245 10.8996 2.86382 9.49214 3.13392 8.13427C3.40402 6.77641 4.0707 5.52912 5.04967 4.55016C6.02864 3.57119 7.27592 2.9045 8.63378 2.63441C9.99165 2.36431 11.3991 2.50293 12.6782 3.03275C13.9573 3.56256 15.0505 4.45977 15.8197 5.61091C16.5889 6.76206 16.9994 8.11544 16.9994 9.4999C16.9994 11.3564 16.2619 13.1369 14.9492 14.4497C13.6364 15.7624 11.8559 16.4999 9.99942 16.4999V16.4999Z" fill="#161616"/>
</svg>
