<svg width="85" height="84" viewBox="0 0 85 84" fill="none" xmlns="http://www.w3.org/2000/svg">
<path d="M58.3686 27.6937L34.8418 51.2207L24.5472 40.9302C24.5373 40.9203 24.5274 40.9103 24.5172 40.9004C23.6955 40.0953 22.3766 40.1085 21.5715 40.9302C20.7661 41.7521 20.7796 43.071 21.6012 43.8761L33.3688 55.6397C33.7589 56.031 34.2892 56.2508 34.8418 56.25C35.3944 56.2505 35.9244 56.031 36.3145 55.6397L61.3145 30.6397C61.3244 30.6297 61.3344 30.6201 61.3443 30.6099C62.1494 29.7882 62.1362 28.4693 61.3145 27.6642C60.4928 26.8588 59.174 26.8723 58.3686 27.6937ZM42.4997 0C19.4879 0 0.833008 18.6549 0.833008 41.6667C0.833008 64.6785 19.4879 83.3333 42.4997 83.3333C65.5003 83.3064 84.1394 64.6673 84.1664 41.6667C84.1664 18.6549 65.5115 0 42.4997 0ZM42.4997 79.1667C21.7889 79.1667 4.99967 62.3774 4.99967 41.6667C4.99967 20.9559 21.7889 4.16667 42.4997 4.16667C63.201 4.1893 79.977 20.9653 79.9997 41.6667C79.9997 62.3774 63.2104 79.1667 42.4997 79.1667Z" fill="white"/>
</svg>
