<svg width="75" height="78" viewBox="0 0 75 78" fill="none" xmlns="http://www.w3.org/2000/svg">
<path d="M53.9609 4.63732C36.7568 -4.60891 15.7479 0.438553 4.39434 15.6271V5.88217C4.39434 4.80578 3.52249 3.93304 2.44717 3.93304C1.37185 3.93304 0.5 4.80578 0.5 5.88217V21.4776C0.500713 22.5533 1.37233 23.4251 2.44717 23.4243H18.0245C19.0998 23.4243 19.9717 22.5516 19.9717 21.4752C19.9717 20.3988 19.0998 19.5261 18.0245 19.5261H6.43278C12.8854 9.88584 23.7013 3.95137 35.4404 3.93304C54.7976 3.90307 70.5137 19.5865 70.5437 38.9631C70.5739 58.3395 54.9062 74.0718 35.5491 74.1017C34.4737 74.1017 33.6019 74.9745 33.6019 76.0509C33.6019 77.1273 34.4737 78 35.5491 78C49.8928 77.9931 63.0728 70.0978 69.8577 57.4478C80.0364 38.4704 72.9192 14.8262 53.9609 4.63732ZM35.5491 23.4243C34.4737 23.4243 33.6019 24.2971 33.6019 25.3735V39.0195C33.6026 40.0955 34.4742 40.9672 35.5491 40.9665H45.2849C46.3602 40.9665 47.2321 40.0938 47.2321 39.0174C47.2321 37.941 46.3602 37.0683 45.2849 37.0683H37.4962V25.3735C37.4962 24.2971 36.6244 23.4243 35.5491 23.4243Z" fill="white"/>
</svg>
