<svg width="67" height="85" viewBox="0 0 67 85" fill="none" xmlns="http://www.w3.org/2000/svg">
<path d="M43.917 40.3125H35.5837V31.9792C35.5837 30.7292 34.7503 29.8958 33.5003 29.8958C32.2503 29.8958 31.417 30.7292 31.417 31.9792V40.3125H23.0837C21.8337 40.3125 21.0003 41.1458 21.0003 42.3958C21.0003 43.6458 21.8337 44.4792 23.0837 44.4792H31.417V52.8125C31.417 54.0625 32.2503 54.8958 33.5003 54.8958C34.7503 54.8958 35.5837 54.0625 35.5837 52.8125V44.4792H43.917C45.167 44.4792 46.0003 43.6458 46.0003 42.3958C46.0003 41.1458 45.167 40.3125 43.917 40.3125ZM66.8337 8.22917C66.417 6.97917 65.5837 6.5625 64.3337 6.5625C53.917 8.64583 43.5003 6.5625 34.7503 0.3125C33.917 -0.104167 33.0837 -0.104167 32.2503 0.3125C23.5003 6.14583 13.0837 8.64583 2.66699 6.5625H2.25033C1.00033 6.5625 0.166992 7.39583 0.166992 8.64583V41.9792C0.166992 54.0625 6.00033 65.7292 16.0003 72.8125L32.2503 84.4792C32.667 84.8958 33.0837 84.8958 33.5003 84.8958C33.917 84.8958 34.3337 84.8958 34.7503 84.4792L51.0003 72.8125C61.0003 65.7292 66.8337 54.0625 66.8337 41.9792V8.64583C66.8337 8.22917 66.8337 8.22917 66.8337 8.22917ZM62.667 41.9792C62.667 52.8125 57.2503 63.2292 48.5003 69.4792L33.5003 80.3125L18.5003 69.4792C9.75032 63.2292 4.33366 52.8125 4.33366 41.9792V11.1458C14.3337 12.8125 24.7503 10.3125 33.5003 4.89583C42.2503 10.3125 52.667 12.8125 62.667 11.1458V41.9792Z" fill="white"/>
</svg>
