<svg width="83" height="80" viewBox="0 0 83 80" fill="none" xmlns="http://www.w3.org/2000/svg">
<path d="M82.829 31.7731C83.1634 29.4947 81.5875 27.3768 79.3093 27.0423L55.762 23.6L45.2395 2.15627C44.8606 1.50218 44.3168 0.958966 43.6622 0.580802C41.5954 -0.613706 38.9513 0.0932838 37.7566 2.16034L27.2382 23.6L3.69082 27.0426C2.79056 27.1746 1.95844 27.5978 1.32088 28.247C-0.292228 29.8901 -0.26756 32.5299 1.37556 34.143L18.4288 50.8626L14.4045 74.4628C14.3664 74.6887 14.3468 74.9173 14.3463 75.1467C14.3399 77.4526 16.2041 79.3271 18.5102 79.3335C19.1899 79.3324 19.8593 79.1648 20.4592 78.8452L41.5001 67.7205L62.5369 78.8411C63.3499 79.2727 64.2827 79.423 65.1901 79.2683C67.4576 78.8815 68.9822 76.7303 68.5956 74.4628L64.5714 50.8626L81.6287 34.1387C82.2756 33.5019 82.697 32.6713 82.829 31.7731ZM60.8767 48.6488C60.3889 49.1274 60.1656 49.8141 60.2786 50.488L64.4859 75.1584L42.4726 63.5208C41.863 63.2034 41.1372 63.2034 40.5276 63.5208L18.5142 75.1625L22.7213 50.4882C22.8345 49.8143 22.6112 49.1277 22.1232 48.649L4.29278 31.1686L28.9266 27.5675C29.6069 27.4658 30.1938 27.037 30.4975 26.42L41.5001 3.99597L52.5024 26.4198C52.8061 27.0367 53.3933 27.4655 54.0733 27.5672L78.7112 31.1642L60.8767 48.6488Z" fill="white"/>
</svg>
