<svg width="38" height="27" viewBox="0 0 38 27" fill="none" xmlns="http://www.w3.org/2000/svg">
<mask id="mask0_1722_1135" style="mask-type:alpha" maskUnits="userSpaceOnUse" x="0" y="0" width="38" height="27">
<rect y="0.0292969" width="38" height="26" fill="#016FD0"/>
</mask>
<g mask="url(#mask0_1722_1135)">
<rect y="0.0292969" width="38" height="26" rx="4" fill="white"/>
<path d="M7.3916 19.9202V13.9551H13.7214L14.4006 14.8385L15.1021 13.9551H38.0779V19.5088C38.0779 19.5088 37.477 19.9142 36.7821 19.9202H24.06L23.2943 18.9799V19.9202H20.7852V18.3151C20.7852 18.3151 20.4424 18.5391 19.7015 18.5391H18.8474V19.9202H15.0484L14.3703 19.0179L13.6817 19.9202H7.3916Z" fill="#016FD0"/>
<path d="M0 9.45915L1.4274 6.13867H3.89595L4.70602 7.99867V6.13867H7.77464L8.25688 7.48302L8.72439 6.13867H22.4993V6.81452C22.4993 6.81452 23.2235 6.13867 24.4136 6.13867L28.883 6.15426L29.6791 7.98991V6.13867H32.2471L32.9539 7.19311V6.13867H35.5454V12.1038H32.9539L32.2766 11.0459V12.1038H28.5036L28.1242 11.1635H27.1099L26.7366 12.1038H24.178C23.1539 12.1038 22.4993 11.4417 22.4993 11.4417V12.1038H18.6415L17.8758 11.1635V12.1038H3.53025L3.15109 11.1635H2.14003L1.76354 12.1038H0V9.45915Z" fill="#016FD0"/>
<path d="M1.93209 6.87402L0.00683594 11.341H1.26028L1.61551 10.4465H3.68065L4.03404 11.341H5.31509L3.39168 6.87402H1.93209ZM2.6444 7.91363L3.27388 9.47672H2.01308L2.6444 7.91363Z" fill="white"/>
<path d="M5.44727 11.3401V6.87305L7.22847 6.87965L8.26449 9.75969L9.27569 6.87305H11.0427V11.3401H9.92357V8.04858L8.73733 11.3401H7.7559L6.56634 8.04858V11.3401H5.44727Z" fill="white"/>
<path d="M11.8096 11.3401V6.87305H15.4613V7.87226H12.9404V8.63635H15.4024V9.57679H12.9404V10.3703H15.4613V11.3401H11.8096Z" fill="white"/>
<path d="M16.1074 6.87402V11.3411H17.2265V9.75409H17.6977L19.0395 11.3411H20.4071L18.9346 9.69532C19.5389 9.64443 20.1623 9.12683 20.1623 8.32325C20.1623 7.38322 19.4229 6.87402 18.5978 6.87402H16.1074ZM17.2265 7.87323H18.5057C18.8126 7.87323 19.0358 8.11277 19.0358 8.34345C19.0358 8.64022 18.7466 8.81366 18.5223 8.81366H17.2265V7.87323Z" fill="white"/>
<path d="M21.7637 11.3401H20.6211V6.87305H21.7637V11.3401Z" fill="white"/>
<path d="M24.4731 11.3401H24.2265C23.0331 11.3401 22.3086 10.4019 22.3086 9.12494C22.3086 7.81646 23.025 6.87305 24.532 6.87305H25.7689V7.93103H24.4868C23.8751 7.93103 23.4424 8.40746 23.4424 9.13596C23.4424 10.0011 23.9371 10.3644 24.6498 10.3644H24.9443L24.4731 11.3401Z" fill="white"/>
<path d="M26.9087 6.87402L24.9834 11.341H26.2368L26.5921 10.4465H28.6572L29.0106 11.341H30.2917L28.3682 6.87402H26.9087ZM27.621 7.91363L28.2504 9.47672H26.9896L27.621 7.91363Z" fill="white"/>
<path d="M30.4209 11.3401V6.87305H31.8437L33.6604 9.67965V6.87305H34.7795V11.3401H33.4027L31.54 8.46003V11.3401H30.4209Z" fill="white"/>
<path d="M8.15723 19.1565V14.6895H11.809V15.6887H9.28809V16.4528H11.7501V17.3932H9.28809V18.1867H11.809V19.1565H8.15723Z" fill="white"/>
<path d="M26.0498 19.1565V14.6895H29.7016V15.6887H27.1807V16.4528H29.6309V17.3932H27.1807V18.1867H29.7016V19.1565H26.0498Z" fill="white"/>
<path d="M11.9515 19.1565L13.7295 16.9505L11.9092 14.6895H13.3191L14.4032 16.0872L15.491 14.6895H16.8456L15.0492 16.923L16.8305 19.1565H15.4208L14.3682 17.7807L13.3412 19.1565H11.9515Z" fill="white"/>
<path d="M16.9619 14.6899V19.157H18.1105V17.7463H19.2884C20.2852 17.7463 21.0407 17.2187 21.0407 16.1924C21.0407 15.3423 20.4481 14.6899 19.4338 14.6899H16.9619ZM18.1105 15.7002H19.351C19.673 15.7002 19.9032 15.8971 19.9032 16.2145C19.9032 16.5126 19.6742 16.7288 19.3473 16.7288H18.1105V15.7002Z" fill="white"/>
<path d="M21.5273 14.6895V19.1565H22.6464V17.5695H23.1176L24.4594 19.1565H25.827L24.3545 17.5108C24.9588 17.4599 25.5822 16.9423 25.5822 16.1387C25.5822 15.1987 24.8428 14.6895 24.0177 14.6895H21.5273ZM22.6464 15.6887H23.9257C24.2325 15.6887 24.4557 15.9282 24.4557 16.1589C24.4557 16.4557 24.1665 16.6291 23.9422 16.6291H22.6464V15.6887Z" fill="white"/>
<path d="M30.2212 19.1565V18.1867H32.4608C32.7922 18.1867 32.9357 18.008 32.9357 17.812C32.9357 17.6242 32.7927 17.4343 32.4608 17.4343H31.4488C30.569 17.4343 30.0791 16.8995 30.0791 16.0964C30.0791 15.3802 30.5278 14.6895 31.835 14.6895H34.0143L33.5431 15.6945H31.6583C31.2981 15.6945 31.1871 15.8832 31.1871 16.0634C31.1871 16.2486 31.3242 16.4528 31.5994 16.4528H32.6596C33.6403 16.4528 34.0659 17.0079 34.0659 17.7348C34.0659 18.5164 33.5917 19.1565 32.6062 19.1565H30.2212Z" fill="white"/>
<path d="M34.3276 19.1565V18.1867H36.5673C36.8987 18.1867 37.0422 18.008 37.0422 17.812C37.0422 17.6242 36.8991 17.4343 36.5673 17.4343H35.5552C34.6755 17.4343 34.1855 16.8995 34.1855 16.0964C34.1855 15.3802 34.6342 14.6895 35.9415 14.6895H38.0762L37.6496 15.6945H35.7648C35.4045 15.6945 35.2936 15.8832 35.2936 16.0634C35.2936 16.2486 35.4306 16.4528 35.7059 16.4528H36.7661C37.7468 16.4528 38.1723 17.0079 38.1723 17.7348C38.1723 18.5164 37.6981 19.1565 36.7127 19.1565H34.3276Z" fill="white"/>
</g>
</svg>
