<svg width="38" height="27" viewBox="0 0 38 27" fill="none" xmlns="http://www.w3.org/2000/svg">
<rect y="0.0292969" width="38" height="26" rx="4" fill="white"/>
<path d="M7.19922 20.2818V16.8799H8.24684C9.0116 16.8799 9.50399 17.1663 9.50399 17.7591C9.50961 17.8992 9.47785 18.0382 9.41196 18.162C9.34606 18.2858 9.24839 18.39 9.12894 18.4637C9.28489 18.5326 9.4163 18.6469 9.50587 18.7917C9.59544 18.9365 9.63898 19.105 9.63075 19.275C9.63075 19.9598 9.12894 20.2807 8.34951 20.2807L7.19922 20.2818ZM7.87598 18.2954H8.37779C8.68475 18.2954 8.8157 18.1449 8.8157 17.8678C8.8157 17.5709 8.57684 17.4737 8.25522 17.4737H7.87494L7.87598 18.2954ZM7.87598 19.69H8.29503C8.70465 19.69 8.94246 19.5855 8.94246 19.2719C8.94246 18.9582 8.73294 18.8244 8.35265 18.8244H7.87494L7.87598 19.69ZM10.9466 20.3414C10.2792 20.3414 9.94294 20.0162 9.94294 19.5782C9.94294 19.0973 10.3379 18.815 10.9214 18.8098C11.0667 18.8123 11.2117 18.8253 11.3551 18.8485V18.7314C11.3551 18.4345 11.1844 18.2944 10.8586 18.2944C10.6386 18.2917 10.4202 18.3315 10.2153 18.4115L10.0938 17.8887C10.3623 17.7911 10.6461 17.7419 10.9319 17.7434C11.6474 17.7434 12.0036 18.1229 12.0036 18.7784V20.126C11.67 20.2741 11.3073 20.3455 10.9424 20.3351L10.9466 20.3414ZM11.3551 19.7925V19.2698C11.2416 19.2447 11.1257 19.2317 11.0094 19.2311C10.7852 19.2311 10.6103 19.3189 10.6103 19.5447C10.6103 19.7538 10.7559 19.8584 11.0147 19.8584C11.1319 19.8621 11.2484 19.8389 11.3551 19.7904V19.7925ZM12.4813 20.2839V17.9536C12.8317 17.8149 13.2054 17.7439 13.5824 17.7445C14.2937 17.7445 14.7023 18.0947 14.7023 18.7408V20.2859H14.0297V18.7847C14.0297 18.4491 13.8736 18.2933 13.5771 18.2933C13.4296 18.2914 13.2835 18.3213 13.1487 18.3811V20.2818L12.4813 20.2839ZM17.0511 17.8877L16.9243 18.4177C16.7504 18.3426 16.5637 18.3015 16.3743 18.2965C15.9793 18.2965 15.7656 18.5735 15.7656 19.0283C15.7656 19.529 15.9898 19.7862 16.4089 19.7862C16.5958 19.7811 16.7797 19.738 16.9494 19.6597L17.0542 20.1992C16.8338 20.2971 16.5945 20.3453 16.3533 20.3403C15.5446 20.3403 15.0773 19.8395 15.0773 19.0471C15.0773 18.2546 15.5404 17.7392 16.3146 17.7392C16.5663 17.7381 16.8157 17.7875 17.0479 17.8846L17.0511 17.8877ZM18.5031 20.3424C17.753 20.3424 17.2857 19.8197 17.2857 19.0398C17.2857 18.2599 17.753 17.7424 18.5031 17.7424C19.2532 17.7424 19.7162 18.2651 19.7162 19.0398C19.7162 19.8145 19.2584 20.3403 18.5031 20.3403V20.3424ZM18.5031 19.7883C18.8488 19.7883 19.0269 19.5019 19.0269 19.0398C19.0269 18.5777 18.8467 18.2965 18.5031 18.2965C18.1594 18.2965 17.9719 18.5829 17.9719 19.0398C17.9719 19.4966 18.1615 19.7862 18.5031 19.7862V19.7883ZM20.1049 20.2839V17.9536C20.4553 17.8149 20.8289 17.7439 21.2059 17.7445C21.9173 17.7445 22.3258 18.0947 22.3258 18.7408V20.2859H21.6533V18.7847C21.6533 18.4491 21.4972 18.2933 21.2007 18.2933C21.0532 18.2914 20.907 18.3213 20.7722 18.3811V20.2818L20.1049 20.2839ZM23.8417 20.3424C23.2624 20.3424 22.9649 20.0288 22.9649 19.3848V18.3393H22.6338V17.8051H22.9649V17.2657L23.6375 17.2312V17.8051H24.178V18.3393H23.6375V19.3795C23.6375 19.6618 23.7548 19.7977 23.9737 19.7977C24.0605 19.7974 24.1469 19.7876 24.2315 19.7684L24.266 20.3079C24.1263 20.3349 23.9839 20.3458 23.8417 20.3403V20.3424ZM25.5378 20.3424C24.8705 20.3424 24.5342 20.0173 24.5342 19.5792C24.5342 19.0983 24.9292 18.8161 25.5127 18.8108C25.658 18.8134 25.8029 18.8263 25.9464 18.8495V18.7324C25.9464 18.4355 25.7756 18.2954 25.4498 18.2954C25.2299 18.2928 25.0115 18.3325 24.8066 18.4125L24.6851 17.8898C24.9536 17.7921 25.2374 17.7429 25.5232 17.7445C26.2387 17.7445 26.5949 18.124 26.5949 18.7795V20.126C26.263 20.2753 25.9018 20.3485 25.5378 20.3403V20.3424ZM25.9464 19.7935V19.2708C25.8329 19.2457 25.717 19.2327 25.6007 19.2321C25.3765 19.2321 25.2016 19.32 25.2016 19.5458C25.2016 19.7549 25.3472 19.8594 25.6059 19.8594C25.7232 19.8628 25.8397 19.8392 25.9464 19.7904V19.7935ZM28.8986 17.8887L28.7718 18.4188C28.598 18.3437 28.4113 18.3025 28.2218 18.2975C27.8269 18.2975 27.6132 18.5745 27.6132 19.0293C27.6132 19.5301 27.8374 19.7873 28.2564 19.7873C28.4433 19.7821 28.6273 19.7391 28.797 19.6608L28.9018 20.2002C28.6814 20.2981 28.4421 20.3463 28.2009 20.3414C27.3921 20.3414 26.9249 19.8406 26.9249 19.0481C26.9249 18.2557 27.3879 17.7403 28.1621 17.7403C28.4149 17.7388 28.6654 17.7882 28.8986 17.8856V17.8887ZM30.3758 20.3434C29.7964 20.3434 29.4989 20.0298 29.4989 19.3858V18.3404H29.1678V17.8062H29.4989V17.2667L30.1715 17.2322V17.8062H30.712V18.3404H30.1715V19.3806C30.1715 19.6629 30.2888 19.7988 30.5078 19.7988C30.5945 19.7985 30.6809 19.7887 30.7655 19.7695L30.8 20.3089C30.6606 20.3355 30.5186 20.346 30.3768 20.3403L30.3758 20.3434Z" fill="#1E3764"/>
<path d="M11.8873 15.1794C15.444 15.1794 17.2218 12.8138 18.9996 10.4482H7.19922V15.1794H11.8873Z" fill="url(#paint0_linear_1722_1140)"/>
<path d="M26.1123 5.71582C22.5556 5.71582 20.7778 8.08139 19 10.447H30.8004V5.71582H26.1123Z" fill="url(#paint1_linear_1722_1140)"/>
<defs>
<linearGradient id="paint0_linear_1722_1140" x1="9.5857" y1="13.0312" x2="18.2135" y2="9.82018" gradientUnits="userSpaceOnUse">
<stop stop-color="#005AB9"/>
<stop offset="1" stop-color="#1E3764"/>
</linearGradient>
<linearGradient id="paint1_linear_1722_1140" x1="19.7145" y1="10.8578" x2="28.8759" y2="7.72519" gradientUnits="userSpaceOnUse">
<stop stop-color="#FBA900"/>
<stop offset="1" stop-color="#FFD800"/>
</linearGradient>
</defs>
</svg>
