<svg width="38" height="27" viewBox="0 0 38 27" fill="none" xmlns="http://www.w3.org/2000/svg">
<rect y="0.0292969" width="38" height="26" rx="4" fill="white"/>
<path fill-rule="evenodd" clip-rule="evenodd" d="M17.9475 17.1006V13.8279H19.6403C20.3339 13.8279 20.9194 13.596 21.3967 13.1386L21.5113 13.0226C22.3831 12.0756 22.3259 10.6003 21.3967 9.72417C20.9322 9.26032 20.2958 9.00907 19.6403 9.02196H16.9229V17.1006H17.9475ZM17.9476 12.8361V10.0141H19.6661C20.0353 10.0141 20.3854 10.1558 20.6463 10.4135C21.2001 10.9547 21.2128 11.8568 20.6782 12.4173C20.4172 12.6944 20.048 12.849 19.6661 12.8361H17.9476ZM26.2906 12.0048C25.8515 11.5989 25.2533 11.3927 24.496 11.3927C23.5223 11.3927 22.7905 11.7535 22.3068 12.4686L23.2105 13.042C23.5414 12.5524 23.9933 12.3075 24.566 12.3075C24.9288 12.3075 25.2788 12.4428 25.5524 12.6876C25.8197 12.9196 25.9725 13.2546 25.9725 13.6089V13.8473C25.5779 13.6282 25.0815 13.5123 24.4706 13.5123C23.7578 13.5123 23.185 13.6798 22.7586 14.0212C22.3323 14.3626 22.1159 14.8136 22.1159 15.387C22.1032 15.9088 22.3259 16.4049 22.7205 16.7399C23.1214 17.1006 23.6305 17.281 24.2287 17.281C24.9351 17.281 25.4952 16.9653 25.9215 16.334H25.9661V17.1006H26.9461V13.6926C26.9461 12.9776 26.7298 12.4106 26.2906 12.0048ZM23.5098 16.0829C23.2997 15.9283 23.1724 15.677 23.1724 15.4064C23.1724 15.1036 23.3125 14.8523 23.5861 14.6526C23.8662 14.4528 24.2163 14.3498 24.63 14.3498C25.2029 14.3433 25.6484 14.4722 25.9667 14.7299C25.9667 15.168 25.7948 15.5482 25.4575 15.8703C25.1519 16.1796 24.7382 16.3536 24.3054 16.3536C24.019 16.36 23.7389 16.2634 23.5098 16.0829ZM29.1481 19.5294L32.5719 11.5731H31.4582L29.8736 15.5416H29.8545L28.2317 11.5731H27.118L29.3645 16.7463L28.0917 19.5294H29.1481Z" fill="#3C4043"/>
<path d="M14.4102 13.1194C14.4102 12.8037 14.3847 12.488 14.3338 12.1787H10.0127V13.9634H12.4883C12.3865 14.5369 12.0555 15.0523 11.5719 15.3745V16.5342H13.0483C13.9138 15.7288 14.4102 14.5369 14.4102 13.1194Z" fill="#4285F4"/>
<path d="M10.0129 17.6551C11.2475 17.6551 12.2912 17.2428 13.0486 16.534L11.5721 15.3743C11.1585 15.6578 10.6302 15.8189 10.0129 15.8189C8.81651 15.8189 7.80464 15.0006 7.44189 13.9053H5.9209V15.1037C6.6973 16.6693 8.28193 17.6551 10.0129 17.6551Z" fill="#34A853"/>
<path d="M7.44164 13.9058C7.25069 13.3324 7.25069 12.7074 7.44164 12.1275V10.9355H5.92041C5.26481 12.2435 5.26481 13.7898 5.92041 15.0978L7.44164 13.9058Z" fill="#FBBC04"/>
<path d="M10.0129 10.214C10.6684 10.2011 11.2985 10.4524 11.7694 10.9098L13.0804 9.58258C12.2467 8.79652 11.1521 8.36484 10.0129 8.37772C8.28193 8.37772 6.6973 9.36995 5.9209 10.9356L7.44189 12.134C7.80464 11.0323 8.81651 10.214 10.0129 10.214Z" fill="#EA4335"/>
</svg>
