<svg width="20" height="20" viewBox="0 0 20 20" fill="none" xmlns="http://www.w3.org/2000/svg">
<circle cx="9.99975" cy="9.73804" r="9.70874" fill="white"/>
<path d="M14.2945 7.78606C14.2893 7.39389 14.2159 7.00562 14.0775 6.63862C13.9576 6.32905 13.7744 6.04791 13.5396 5.81316C13.3049 5.5784 13.0237 5.3952 12.7142 5.27525C12.3519 5.13926 11.9692 5.06572 11.5823 5.05778C11.0841 5.03551 10.9262 5.0293 9.66175 5.0293C8.39728 5.0293 8.23521 5.0293 7.74071 5.05778C7.354 5.06578 6.97144 5.13931 6.60932 5.27525C6.29971 5.39512 6.01852 5.57829 5.78376 5.81305C5.54899 6.04782 5.36582 6.329 5.24595 6.63862C5.10969 7.00063 5.03631 7.38327 5.029 7.77001C5.00673 8.26865 5 8.42658 5 9.69104C5 10.9555 5 11.1171 5.029 11.6121C5.03676 11.9994 5.10977 12.3815 5.24595 12.7445C5.36602 13.054 5.54933 13.3351 5.78417 13.5698C6.01902 13.8044 6.30023 13.9875 6.60984 14.1074C6.97097 14.2488 7.35359 14.3276 7.74123 14.3404C8.23987 14.3626 8.3978 14.3694 9.66227 14.3694C10.9267 14.3694 11.0888 14.3694 11.5833 14.3404C11.9702 14.3327 12.3529 14.2594 12.7152 14.1234C13.0247 14.0033 13.3058 13.8201 13.5405 13.5853C13.7752 13.3506 13.9585 13.0695 14.0786 12.76C14.2148 12.3976 14.2878 12.0154 14.2955 11.6276C14.3178 11.1295 14.3245 10.9716 14.3245 9.70658C14.3235 8.44211 14.3235 8.28159 14.2945 7.78606ZM9.65864 12.0822C8.33618 12.0822 7.26485 11.0109 7.26485 9.68846C7.26485 8.366 8.33618 7.29467 9.65864 7.29467C10.2935 7.29467 10.9024 7.54687 11.3513 7.99579C11.8002 8.44471 12.0524 9.05358 12.0524 9.68846C12.0524 10.3233 11.8002 10.9322 11.3513 11.3811C10.9024 11.83 10.2935 12.0822 9.65864 12.0822ZM12.1477 7.76431C11.8386 7.76431 11.5895 7.51473 11.5895 7.20613C11.5895 7.13286 11.6039 7.06031 11.632 6.99262C11.66 6.92492 11.7011 6.86342 11.7529 6.81161C11.8047 6.7598 11.8662 6.7187 11.9339 6.69067C12.0016 6.66263 12.0742 6.6482 12.1474 6.6482C12.2207 6.6482 12.2933 6.66263 12.361 6.69067C12.4286 6.7187 12.4902 6.7598 12.542 6.81161C12.5938 6.86342 12.6349 6.92492 12.6629 6.99262C12.6909 7.06031 12.7054 7.13286 12.7054 7.20613C12.7054 7.51473 12.4558 7.76431 12.1477 7.76431Z" fill="#38470B"/>
<path d="M9.65847 11.2432C10.5172 11.2432 11.2134 10.547 11.2134 9.68825C11.2134 8.82948 10.5172 8.1333 9.65847 8.1333C8.79969 8.1333 8.10352 8.82948 8.10352 9.68825C8.10352 10.547 8.79969 11.2432 9.65847 11.2432Z" fill="#38470B"/>
</svg>
