<svg width="38" height="27" viewBox="0 0 38 27" fill="none" xmlns="http://www.w3.org/2000/svg">
<rect y="0.0292969" width="38" height="26" rx="4" fill="white"/>
<path d="M21.8173 13.1667C21.8173 17.2968 18.5004 20.6449 14.4087 20.6449C10.317 20.6449 7 17.2968 7 13.1667C7 9.0366 10.317 5.68848 14.4087 5.68848C18.5004 5.68848 21.8173 9.0366 21.8173 13.1667Z" fill="#ED0006"/>
<path d="M31.4287 13.1667C31.4287 17.2968 28.1117 20.6449 24.02 20.6449C19.9283 20.6449 16.6113 17.2968 16.6113 13.1667C16.6113 9.0366 19.9283 5.68848 24.02 5.68848C28.1117 5.68848 31.4287 9.0366 31.4287 13.1667Z" fill="#0099DF"/>
<path fill-rule="evenodd" clip-rule="evenodd" d="M19.2143 7.4751C20.8073 8.84674 21.8174 10.8877 21.8174 13.1669C21.8174 15.446 20.8073 17.487 19.2143 18.8586C17.6214 17.487 16.6113 15.446 16.6113 13.1669C16.6113 10.8877 17.6214 8.84674 19.2143 7.4751Z" fill="#6C6BBD"/>
</svg>
