<svg width="38" height="27" viewBox="0 0 38 27" fill="none" xmlns="http://www.w3.org/2000/svg">
<rect y="0.0292969" width="38" height="26" rx="4" fill="white"/>
<path fill-rule="evenodd" clip-rule="evenodd" d="M9.90595 9.84814H8.04455C7.91717 9.84814 7.80884 9.94052 7.78898 10.0659L7.03613 14.8287C7.02117 14.9227 7.09411 15.0074 7.18965 15.0074H8.0783C8.20568 15.0074 8.31401 14.915 8.33387 14.7893L8.53692 13.5048C8.55651 13.379 8.66511 13.2867 8.79222 13.2867H9.38148C10.6076 13.2867 11.3153 12.6946 11.5002 11.5214C11.5834 11.0082 11.5037 10.6049 11.2627 10.3223C10.9982 10.0123 10.5289 9.84814 9.90595 9.84814ZM10.1207 11.5877C10.0189 12.2541 9.50859 12.2541 9.01514 12.2541H8.73425L8.9313 11.0094C8.943 10.9343 9.00832 10.8788 9.08454 10.8788H9.21328C9.54941 10.8788 9.86653 10.8788 10.0304 11.07C10.128 11.1841 10.158 11.3535 10.1207 11.5877ZM15.4701 11.5663H14.5788C14.5028 11.5663 14.4372 11.6217 14.4255 11.697L14.386 11.9457L14.3237 11.8556C14.1307 11.5761 13.7005 11.4827 13.271 11.4827C12.2859 11.4827 11.4446 12.2271 11.2808 13.2714C11.1956 13.7922 11.3167 14.2903 11.6128 14.6376C11.8845 14.957 12.2732 15.0901 12.7355 15.0901C13.5292 15.0901 13.9694 14.5808 13.9694 14.5808L13.9296 14.828C13.9146 14.9226 13.9875 15.0073 14.0825 15.0073H14.8855C15.0132 15.0073 15.1209 14.9149 15.141 14.7892L15.6228 11.745C15.638 11.6514 15.5654 11.5663 15.4701 11.5663ZM14.2276 13.2974C14.1416 13.8055 13.7374 14.1466 13.222 14.1466C12.9631 14.1466 12.7562 14.0638 12.6234 13.9068C12.4917 13.751 12.4416 13.529 12.4835 13.2819C12.5639 12.7781 12.9748 12.4259 13.4824 12.4259C13.7355 12.4259 13.9413 12.5098 14.0768 12.6681C14.2126 12.8281 14.2665 13.0513 14.2276 13.2974ZM19.3217 11.5662H20.2175C20.343 11.5662 20.4161 11.7066 20.3449 11.8092L17.3656 16.1002C17.3174 16.1697 17.2379 16.211 17.153 16.211H16.2584C16.1324 16.211 16.0589 16.0695 16.1318 15.9666L17.0594 14.66L16.0728 11.7709C16.0387 11.6705 16.113 11.5662 16.2201 11.5662H17.1003C17.2146 11.5662 17.3155 11.6411 17.3485 11.7503L17.8721 13.4952L19.1076 11.6794C19.156 11.6085 19.2363 11.5662 19.3217 11.5662Z" fill="#253B80"/>
<path fill-rule="evenodd" clip-rule="evenodd" d="M29.0339 14.8284L29.7978 9.97861C29.8095 9.90333 29.8749 9.84791 29.9508 9.84766H30.8108C30.9058 9.84766 30.9787 9.93261 30.9637 10.0266L30.2104 14.7891C30.1907 14.9148 30.0824 15.0071 29.9548 15.0071H29.1868C29.0918 15.0071 29.0189 14.9224 29.0339 14.8284ZM23.1834 9.84791H21.3216C21.1945 9.84791 21.0862 9.94028 21.0663 10.0657L20.3135 14.8284C20.2985 14.9224 20.3714 15.0071 20.4665 15.0071H21.4218C21.5106 15.0071 21.5865 14.9425 21.6004 14.8546L21.814 13.5045C21.8336 13.3787 21.9422 13.2865 22.0693 13.2865H22.6583C23.8847 13.2865 24.5922 12.6944 24.7772 11.5212C24.8607 11.0079 24.7805 10.6046 24.5396 10.3221C24.2753 10.012 23.8063 9.84791 23.1834 9.84791ZM23.3981 11.5874C23.2966 12.2539 22.7862 12.2539 22.2925 12.2539H22.0119L22.2092 11.0092C22.2209 10.934 22.2857 10.8786 22.3621 10.8786H22.4909C22.8268 10.8786 23.1442 10.8786 23.3079 11.0698C23.4057 11.1839 23.4354 11.3533 23.3981 11.5874ZM28.7471 11.5661H27.8563C27.7797 11.5661 27.7147 11.6215 27.7033 11.6968L27.6638 11.9455L27.6012 11.8554C27.4083 11.5759 26.9783 11.4825 26.5488 11.4825C25.5637 11.4825 24.7227 12.2269 24.5588 13.2711C24.4739 13.792 24.5944 14.29 24.8906 14.6374C25.1628 14.9567 25.5509 15.0898 26.0133 15.0898C26.807 15.0898 27.2471 14.5806 27.2471 14.5806L27.2074 14.8278C27.1924 14.9223 27.2653 15.007 27.3609 15.007H28.1635C28.2906 15.007 28.3989 14.9146 28.4188 14.789L28.9008 11.7448C28.9156 11.6511 28.8427 11.5661 28.7471 11.5661ZM27.5046 13.2972C27.4191 13.8053 27.0144 14.1464 26.4989 14.1464C26.2405 14.1464 26.0332 14.0636 25.9003 13.9066C25.7686 13.7507 25.7191 13.5288 25.7605 13.2817C25.8413 12.7779 26.2518 12.4257 26.7594 12.4257C27.0125 12.4257 27.2182 12.5095 27.3539 12.6679C27.4901 12.8279 27.5441 13.0511 27.5046 13.2972Z" fill="#179BD7"/>
</svg>
