<svg width="20" height="20" viewBox="0 0 20 20" fill="none" xmlns="http://www.w3.org/2000/svg">
<circle cx="10.2917" cy="9.73804" r="9.70874" fill="white"/>
<g clip-path="url(#clip0_1722_1095)">
<path d="M16.7572 6.16303C16.3248 6.35461 15.8603 6.48406 15.372 6.54257C15.8759 6.24111 16.2528 5.76664 16.4325 5.20769C15.9591 5.48885 15.4411 5.68675 14.9008 5.7928C14.5375 5.4049 14.0563 5.14779 13.5319 5.0614C13.0076 4.975 12.4693 5.06415 12.0008 5.315C11.5322 5.56586 11.1596 5.96438 10.9408 6.4487C10.722 6.93302 10.6691 7.47604 10.7905 7.99345C9.83142 7.94529 8.89314 7.696 8.03659 7.26175C7.18005 6.8275 6.42438 6.218 5.81864 5.4728C5.61152 5.83008 5.49243 6.24432 5.49243 6.68549C5.4922 7.08264 5.59 7.4737 5.77715 7.82399C5.96431 8.17428 6.23503 8.47295 6.56531 8.69351C6.18228 8.68133 5.8077 8.57783 5.47275 8.39164V8.4227C5.47271 8.97972 5.66539 9.5196 6.01809 9.95073C6.37079 10.3819 6.86178 10.6777 7.40777 10.788C7.05244 10.8842 6.67992 10.8983 6.31832 10.8294C6.47236 11.3087 6.77242 11.7278 7.1765 12.0281C7.58058 12.3284 8.06844 12.4948 8.57178 12.504C7.71732 13.1748 6.66208 13.5386 5.57579 13.537C5.38337 13.5371 5.19111 13.5258 5 13.5034C6.10264 14.2123 7.3862 14.5886 8.69709 14.5871C13.1346 14.5871 15.5605 10.9118 15.5605 7.72419C15.5605 7.62063 15.5579 7.51604 15.5533 7.41248C16.0251 7.07123 16.4324 6.64867 16.7561 6.16458L16.7572 6.16303Z" fill="#56CCF2"/>
</g>
<defs>
<clipPath id="clip0_1722_1095">
<rect width="12.4272" height="12.4272" fill="white" transform="translate(4 3.0293)"/>
</clipPath>
</defs>
</svg>
